<svg width="3273" height="1770" viewBox="0 0 3273 1770" fill="none" xmlns="http://www.w3.org/2000/svg">
<path fill-rule="evenodd" clip-rule="evenodd" d="M718.762 366.129C735.255 236.234 628.87 144 490 144C350.863 144 249.692 236.589 262.343 366.88C247.414 363.684 231.908 362 216 362C96.7065 362 0 456.692 0 573.5C0 685.703 89.2313 777.499 202 784.563V785H216H490H778C897.294 785 994 689.413 994 571.5C994 453.587 897.294 358 778 358C757.458 358 737.586 360.834 718.762 366.129Z" fill="#EBECB7"/>
<path fill-rule="evenodd" clip-rule="evenodd" d="M1845.76 942.129C1862.25 812.234 1755.87 720 1617 720C1477.86 720 1376.69 812.589 1389.34 942.88C1374.41 939.684 1358.91 938 1343 938C1223.71 938 1127 1032.69 1127 1149.5C1127 1261.7 1216.23 1353.5 1329 1360.56V1361H1343H1617H1905C2024.29 1361 2121 1265.41 2121 1147.5C2121 1029.59 2024.29 934 1905 934C1884.46 934 1864.59 936.834 1845.76 942.129Z" fill="#EBECB7"/>
<path fill-rule="evenodd" clip-rule="evenodd" d="M837.762 1351.13C854.255 1221.23 747.87 1129 609 1129C469.863 1129 368.692 1221.59 381.343 1351.88C366.414 1348.68 350.908 1347 335 1347C215.706 1347 119 1441.69 119 1558.5C119 1670.7 208.231 1762.5 321 1769.56V1770H335H609H897C1016.29 1770 1113 1674.41 1113 1556.5C1113 1438.59 1016.29 1343 897 1343C876.458 1343 856.586 1345.83 837.762 1351.13Z" fill="#EBECB7"/>
<path fill-rule="evenodd" clip-rule="evenodd" d="M2997.76 1230.13C3014.25 1100.23 2907.87 1008 2769 1008C2629.86 1008 2528.69 1100.59 2541.34 1230.88C2526.41 1227.68 2510.91 1226 2495 1226C2375.71 1226 2279 1320.69 2279 1437.5C2279 1549.7 2368.23 1641.5 2481 1648.56V1649H2495H2769H3057C3176.29 1649 3273 1553.41 3273 1435.5C3273 1317.59 3176.29 1222 3057 1222C3036.46 1222 3016.59 1224.83 2997.76 1230.13Z" fill="#EBECB7"/>
<path fill-rule="evenodd" clip-rule="evenodd" d="M2500.76 222.129C2517.25 92.2337 2410.87 0 2272 0C2132.86 0 2031.69 92.5891 2044.34 222.88C2029.41 219.684 2013.91 218 1998 218C1878.71 218 1782 312.692 1782 429.5C1782 541.703 1871.23 633.499 1984 640.563V641H1998H2272H2560C2679.29 641 2776 545.413 2776 427.5C2776 309.587 2679.29 214 2560 214C2539.46 214 2519.59 216.834 2500.76 222.129Z" fill="#EBECB7"/>
</svg>
